<svg width="20" height="20" viewBox="0 0 20 20" fill="none" xmlns="http://www.w3.org/2000/svg">
<path d="M14.0938 4.75C14.3976 4.75004 14.7345 4.83728 15.0986 4.99414L15.4287 5.13672L15.1807 5.39648L13.9482 6.68848L13.8438 6.79785L13.6973 6.75586C13.5333 6.70811 13.449 6.69434 13.4209 6.69434C13.1435 6.69449 12.7939 6.856 12.3672 7.26758C11.9976 7.62399 11.5936 8.1453 11.1562 8.83887L10.9668 9.14746L10.7324 9.53223L10.9258 10.0498L10.9268 10.0518C11.3731 11.2777 11.7748 12.1833 12.1309 12.7783C12.3093 13.0764 12.4701 13.2856 12.6104 13.417C12.7527 13.5502 12.848 13.5799 12.9014 13.5801C13.2735 13.5801 13.6143 13.3264 13.8789 12.6045L13.9863 12.3115L14.249 12.4805C14.4571 12.6141 14.6494 12.8049 14.6494 13.0674C14.6494 13.3036 14.5549 13.5385 14.4033 13.7656C14.251 13.9938 14.0301 14.2309 13.749 14.4766C13.194 14.9616 12.6663 15.25 12.1787 15.25C11.6607 15.25 11.1976 14.8877 10.7822 14.3154C10.3603 13.734 9.9441 12.8777 9.53027 11.7607V11.7598L9.43359 11.5049L9.40137 11.5635L9.40039 11.5654C8.70107 12.7638 8.00826 13.6783 7.31934 14.2959C6.63008 14.9137 5.92611 15.25 5.21191 15.25C4.69336 15.25 4.23617 15.12 3.85449 14.8477L3.6123 14.6748L3.8252 14.4658L5.00684 13.3057L5.18262 13.1328L5.3584 13.3076C5.51828 13.4672 5.69357 13.5391 5.89453 13.5391C6.19172 13.539 6.54226 13.3892 6.9502 13.0234C7.35637 12.6592 7.79633 12.1015 8.26855 11.3389V11.3379L8.79883 10.4834L8.9375 10.2539L8.66602 9.53711L8.29199 8.58789V8.58691L7.80566 7.50293L7.80469 7.50195C7.6358 7.12163 7.47774 6.85404 7.33398 6.68555C7.18676 6.513 7.08692 6.48047 7.03516 6.48047C6.88411 6.48048 6.73334 6.54754 6.5791 6.73047C6.41985 6.91949 6.26823 7.2218 6.13379 7.65723L6.05566 7.90918L5.80859 7.81836C5.56688 7.72984 5.33907 7.55818 5.33887 7.25879C5.33887 6.7447 5.63434 6.20401 6.13672 5.64648C6.63472 5.09385 7.13617 4.75017 7.63574 4.75C8.14176 4.75 8.5943 5.11045 9 5.67285C9.41293 6.24532 9.8231 7.08795 10.2334 8.1875L10.2578 8.25293C10.9738 7.12399 11.6428 6.26249 12.2646 5.67773C12.8907 5.089 13.5029 4.75 14.0938 4.75Z" fill="#1C1F23" stroke="#1C1F23" stroke-width="0.5"/>
</svg>
