<svg width="80" height="80" viewBox="0 0 80 80" fill="none" xmlns="http://www.w3.org/2000/svg">
<g transform="translate(1.2, -1) scale(1.9)">
<path d="M23.1035 4.7002C23.5357 4.70044 23.868 5.05323 23.8682 5.47168V10.8828C23.8684 13.9565 26.3804 16.4775 29.4248 16.4932H34.5303C34.9472 16.4932 35.2802 16.8287 35.2803 17.249V30.7568C35.28 34.923 31.9353 38.2998 27.7949 38.2998H14.5703C10.2455 38.2997 6.71975 34.7556 6.71973 30.3877V12.2764C6.71973 8.10997 10.0802 4.7002 14.2207 4.7002H23.1035ZM18.25 21.5C17.5596 21.5 17 22.0596 17 22.75V25.5H14.25C13.5596 25.5 13 26.0596 13 26.75C13 27.4404 13.5596 28 14.25 28H17V30.75C17 31.4404 17.5596 32 18.25 32C18.9404 32 19.5 31.4404 19.5 30.75V28H22.25C22.9404 28 23.5 27.4404 23.5 26.75C23.5 26.0596 22.9404 25.5 22.25 25.5H19.5V22.75C19.5 22.0596 18.9404 21.5 18.25 21.5ZM26.291 6.22168C26.2911 5.49805 27.161 5.13832 27.6572 5.66211C28.5584 6.60635 29.7963 7.90716 31.0283 9.20117C32.2568 10.4899 33.4785 11.7753 34.3555 12.6953C34.8411 13.2035 34.4844 14.0497 33.7852 14.0518C32.417 14.0569 30.8051 14.0511 29.6455 14.0391C27.8056 14.0388 26.2912 12.5093 26.291 10.6504V6.22168Z" fill="black"/>
</g>
</svg>  