<svg xmlns="http://www.w3.org/2000/svg" width="80" height="80" viewBox="0 0 80 80" fill="none">
<g transform="translate(40, 40) scale(1.1) translate(-32, -32)">
<path d="M5.33398 18.6671L27.1075 33.9086C28.8706 35.1428 29.7522 35.7599 30.7111 35.9989C31.5582 36.2101 32.4441 36.2101 33.2911 35.9989C34.25 35.7599 35.1316 35.1428 36.8947 33.9086L58.6682 18.6671M18.1342 53.3344H45.868C50.3485 53.3344 52.5888 53.3344 54.3001 52.4624C55.8054 51.6954 57.0293 50.4716 57.7963 48.9662C58.6682 47.2549 58.6682 45.0147 58.6682 40.5342V23.4672C58.6682 18.9867 58.6682 16.7465 57.7963 15.0351C57.0293 13.5298 55.8054 12.306 54.3001 11.539C52.5888 10.667 50.3485 10.667 45.868 10.667H18.1342C13.6537 10.667 11.4135 10.667 9.70214 11.539C8.19681 12.306 6.97295 13.5298 6.20595 15.0351C5.33398 16.7465 5.33398 18.9867 5.33398 23.4672V40.5342C5.33398 45.0147 5.33398 47.2549 6.20595 48.9662C6.97295 50.4716 8.19681 51.6954 9.70214 52.4624C11.4135 53.3344 13.6537 53.3344 18.1342 53.3344Z" stroke="black" stroke-width="6" stroke-linecap="round" stroke-linejoin="round"/>
</g>
</svg>