<svg width="80" height="80" viewBox="0 0 80 80" fill="none" xmlns="http://www.w3.org/2000/svg">
<path fill-rule="evenodd" clip-rule="evenodd" d="M20.4423 14.7068C20.4158 14.7068 20.3969 14.6954 20.3667 14.7068C19.8907 14.7181 19.4298 14.8163 19.0142 14.9864C18.9084 15.0317 18.8027 15.0808 18.7044 15.1299L18.6818 15.1375L18.6742 15.145L18.6629 15.1488L18.6402 15.1639L18.6327 15.1677C18.6251 15.1752 18.6213 15.1752 18.6213 15.1752L18.6138 15.179L18.6024 15.1828L18.5987 15.1866L18.5836 15.1941L18.5798 15.1979C18.5798 15.1979 18.5722 15.1979 18.5684 15.2055L18.5571 15.2092L18.5496 15.2168L18.5382 15.2206C18.5344 15.2281 18.5269 15.2281 18.5269 15.2281C18.5269 15.2281 18.5231 15.2206 18.5155 15.2357L18.508 15.2395C18.5042 15.247 18.4967 15.247 18.4967 15.247L18.4664 15.2621L18.4551 15.2697L18.4475 15.2735L18.4438 15.2772L18.4362 15.281L18.4249 15.2886C18.4249 15.2886 18.4211 15.2886 18.4135 15.2961L18.406 15.2999C18.202 15.4321 18.0055 15.5832 17.828 15.757C17.8204 15.7646 17.8166 15.7684 17.8166 15.7684L17.8129 15.7721C17.7978 15.791 17.7789 15.8061 17.7638 15.8213L7.10266 26.5088C5.6293 27.9859 5.63308 30.3773 7.11022 31.8507C8.58358 33.3203 10.9787 33.3278 12.4521 31.8431L16.6644 27.6195V61.1783C16.6644 63.2636 18.3531 64.9561 20.4423 64.9561C22.5276 64.9561 24.2201 63.2674 24.2201 61.1783V27.6195L28.4362 31.8431C29.9058 33.3278 32.3009 33.324 33.778 31.8507C35.2551 30.3735 35.2589 27.9859 33.7855 26.5088L23.1207 15.8213L23.0679 15.7646L23.0603 15.7608C23.0603 15.7608 23.0679 15.7457 23.0565 15.757L23.0414 15.7419C22.7619 15.4737 22.4445 15.2584 22.1121 15.0959L22.1045 15.0921L22.0932 15.0883L22.0818 15.0808L22.0743 15.077L22.0629 15.0732C22.0554 15.0695 22.0441 15.0732 22.0516 15.0657L22.0289 15.0581L22.0214 15.0506L22.0101 15.0468C22.0101 15.0468 22.0063 15.043 21.9987 15.043C21.9912 15.0279 21.9874 15.0355 21.9874 15.0355L21.9798 15.0317L21.9572 15.0241C21.9572 15.0241 21.9572 15.0317 21.9458 15.0166L21.9383 15.0128L21.9232 15.009C21.9194 15.0015 21.9156 15.0052 21.9156 15.0052L21.9043 15.0015L21.8967 14.9977C21.4698 14.8163 21.0014 14.7181 20.514 14.7068H20.4423Z" fill="black"/>
<path fill-rule="evenodd" clip-rule="evenodd" d="M70.2222 57.4004H38.22C36.1346 57.4004 34.4421 59.0891 34.4421 61.1783C34.4421 63.2674 36.1346 64.9561 38.22 64.9561H70.2222C72.3075 64.9561 74 63.2674 74 61.1783C74 59.0891 72.3075 57.4004 70.2222 57.4004ZM70.2222 36.0554H45.3299C43.2445 36.0554 41.552 37.7441 41.552 39.8333C41.552 41.9186 43.2445 43.6111 45.3299 43.6111H70.2222C72.3075 43.6111 74 41.9186 74 39.8333C74 37.7441 72.3075 36.0554 70.2222 36.0554ZM70.2222 14.7068H45.3299C43.2445 14.7068 41.552 16.3955 41.552 18.4846C41.552 20.5738 43.2445 22.2625 45.3299 22.2625H70.2222C72.3075 22.2625 74 20.5738 74 18.4846C74 16.3955 72.3075 14.7068 70.2222 14.7068Z" fill="black"/>
</svg>
