<svg xmlns="http://www.w3.org/2000/svg" width="80" height="80" viewBox="0 0 80 80" fill="none">
<path d="M69.5 12.8C66.3 11.9 65.5 11.4 63.6 11.4C59.9 11.4 56.4 13.5 53.1 16.6C50.2 19.3 47.2 23.0 44.0 27.6C42.2 23.1 40.4 19.5 38.4 16.8C36.2 13.8 33.5 11.4 30.1 11.4C26.8 11.4 23.8 13.6 21.1 16.5C18.4 19.5 16.6 22.7 16.6 25.9C16.6 28.4 18.6 29.7 20.0 30.3L22.9 31.3L23.8 28.4C24.4 26.3 25.1 25.0 25.8 24.2C26.2 23.7 26.6 23.5 26.8 23.5C26.9 23.5 27.2 23.6 27.3 24.0C27.9 24.7 28.7 25.9 29.6 27.8L32.1 33.4L32.1 33.4C32.1 33.4 32.1 33.4 32.1 33.5C32.1 33.5 32.1 33.6 32.1 33.7C32.2 33.8 32.2 33.9 32.2 34.0C32.3 34.2 32.3 34.4 32.3 34.7C32.9 35.5 33.4 36.7 34.0 38.2L35.1 41.1L34.8 41.7L32.1 46.0C29.6 49.9 27.4 52.6 25.5 54.4C23.5 56.1 22.0 56.6 21.0 56.6C20.4 56.6 19.9 56.4 19.3 55.9L17.3 53.9L6.7 64.2L9.5 66.2C11.8 67.8 14.5 68.6 17.5 68.6C21.7 68.6 25.7 66.6 29.5 63.3C32.7 60.4 35.9 56.4 39.1 51.3C41.1 56.3 43.1 60.3 45.2 63.1C47.4 66.2 50.2 68.6 53.7 68.6C56.8 68.6 59.9 66.8 62.9 64.2C64.4 62.9 65.6 61.6 66.5 60.2C67.4 58.9 68.1 57.4 68.1 55.8C68.1 53.6 66.5 52.2 65.3 51.4L62.3 49.5L61.1 52.8C59.8 56.2 58.5 56.8 57.5 56.8C57.4 56.8 57.1 56.7 57.0 56.4C56.4 55.9 55.7 55.0 54.8 53.5C53.0 50.6 51.0 46.0 48.6 39.7L48.6 39.7L47.9 37.8L48.7 36.4L48.7 36.4C51.3 32.1 53.7 29.1 55.7 27.1C57.8 25.1 59.2 24.6 60.1 24.6C60.1 24.6 60.2 24.6 60.3 24.6C60.5 24.6 60.8 24.7 61.1 24.8L62.8 25.3L70.4 17.4L73.3 14.4L69.5 12.8Z" fill="black"/>
</svg>
